<svg xmlns="http://www.w3.org/2000/svg" viewBox="0 0 512 512" width="512" height="512">
  <rect width="512" height="512" rx="96" fill="#0d1117"/>

  <g stroke="#30363d" stroke-width="3" fill="none" opacity="0.9">
    <line x1="128" y1="120" x2="200" y2="170"/>
    <line x1="256" y1="100" x2="200" y2="170"/>
    <line x1="384" y1="120" x2="312" y2="170"/>
    <line x1="200" y1="170" x2="256" y2="210"/>
    <line x1="312" y1="170" x2="256" y2="210"/>
    <line x1="160" y1="200" x2="200" y2="170"/>
    <line x1="352" y1="200" x2="312" y2="170"/>
    <line x1="160" y1="200" x2="256" y2="210"/>
    <line x1="352" y1="200" x2="256" y2="210"/>
  </g>

  <g fill="#c9d1d9">
    <circle cx="128" cy="120" r="10"/>
    <circle cx="256" cy="100" r="12"/>
    <circle cx="384" cy="120" r="10"/>
    <circle cx="160" cy="200" r="8"/>
    <circle cx="352" cy="200" r="8"/>
    <circle cx="200" cy="170" r="9"/>
    <circle cx="312" cy="170" r="9"/>
    <circle cx="256" cy="210" r="11"/>
  </g>

  <rect x="80" y="248" width="352" height="200" rx="20"
        fill="#161b22" stroke="#30363d" stroke-width="4"/>

  <rect x="80" y="248" width="352" height="36" rx="20" fill="#21262d"/>
  <rect x="80" y="266" width="352" height="18" fill="#21262d"/>
  <g fill="#484f58">
    <circle cx="106" cy="266" r="6"/>
    <circle cx="128" cy="266" r="6"/>
    <circle cx="150" cy="266" r="6"/>
  </g>

  <g font-family="ui-monospace, SFMono-Regular, Menlo, monospace"
     font-weight="700" fill="#e6edf3">
    <text x="112" y="358" font-size="68">&gt;_</text>
  </g>

  <rect x="232" y="318" width="22" height="56" fill="#e6edf3">
    <animate attributeName="opacity" values="1;0;1" dur="1.1s" repeatCount="indefinite"/>
  </rect>

  <g stroke="#484f58" stroke-width="3" fill="none" opacity="0.6">
    <line x1="112" y1="402" x2="280" y2="402"/>
    <line x1="112" y1="424" x2="240" y2="424"/>
  </g>
</svg>
